<svg xmlns="http://www.w3.org/2000/svg" viewBox="0 0 32 32" class="ddbc-svg ddbc-combat-attack__icon-img--spell-school-evocation ddbc-spell-school-icon ddbc-spell-school-icon--evocation"><path fill="#242528" d="M31.64055,16.99945c-.23438-.03458-.57809-.09759-1.01566-.15285-.87252-.125-2.11848-.27677-3.613-.41055a6.11948,6.11948,0,0,0-2.72181-4.31569l.95288-3.20363-2.421,2.31376a12.77361,12.77361,0,0,0-1.80874-.73547l.75547-5.47679-2.56188,5.018a16.92872,16.92872,0,0,0-2.33651-.27276c-.06968-1.00747-.154-1.95283-.24678-2.79959-.1334-1.23215-.28534-2.25924-.40977-2.97782-.05466-.35945-.11767-.642-.15194-.8344C16.02162,2.95929,16,2.85645,16,2.85645s-.02162.10284-.06176.29522c-.03427.19238-.09728.47495-.15194.8344-.12443.71858-.27637,1.74567-.40977,2.97782-.09275.84676-.1771,1.79212-.24678,2.79959a17.00621,17.00621,0,0,0-2.12943.23558l-2.55443-4.981.75707,5.4074a13.04,13.04,0,0,0-1.85418.71877L6.97192,8.9169,7.855,12.01561a6.18957,6.18957,0,0,0-2.86725,4.42355c-1.49441.13316-2.74022.28457-3.61268.40866-.43757.05466-.78128.11767-1.01566.15193C.12508,17.0399,0,17.06152,0,17.06152s.12508.02162.35945.06176c.23438.03427.57809.09728,1.01566.15194.87485.12443,2.12489.27637,3.62476.40977l.03773.00328a5.67684,5.67684,0,0,0,1.52956,2.933L3.22751,25.24487l4.781-3.41326a11.35094,11.35094,0,0,0,2.24293,1.15791l-.73219,2.873L11.9096,23.5118a16.57294,16.57294,0,0,0,3.35793.47435c.03377.36341.06911.71486.10591,1.05.134,1.23215.28626,2.25924.41164,2.97782.055.35945.11827.642.15285.8344L16,29.14355l.06207-.29522c.03458-.19238.09759-.47495.15285-.8344.12538-.71858.27762-1.74567.41164-2.97782.0368-.3351.07214-.68655.10591-1.05A16.49933,16.49933,0,0,0,20.2614,23.469l2.4336,2.39348-.75211-2.95212a11.13582,11.13582,0,0,0,2.16434-1.15727L28.987,25.24487l-3.44983-4.73916a5.623,5.623,0,0,0,1.42467-2.81429l.03833-.00334c1.49987-.134,2.74991-.28626,3.62476-.41164.43757-.05526.78128-.11827,1.01566-.15285L32,17.06152ZM19.72619,12.38a11.13261,11.13261,0,0,1,2.3378.903s.707.45123.76683.4588a4.4068,4.4068,0,0,1,1.96832,2.521c-.92516-.0625-1.90522-.11718-2.92427-.15981-.93722-.03861-1.90625-.07411-2.89042-.08987-.62949-.01559-1.266-.02143-1.904-.02554-.0061-.81753-.00961-1.63471-.03356-2.439-.01231-.54618-.03276-1.08266-.05611-1.61309a14.36822,14.36822,0,0,1,2.3513.34779m-6.3265,3.73141c-.98417.01823-1.9532.05065-2.89042.09112-1.01935.04314-1.99968.098-2.92508.16045a4.5629,4.5629,0,0,1,2.18566-2.66488l.59335-.32967c.00581-.00621.00948-.0135.01512-.0198a11.20353,11.20353,0,0,1,2.29271-.87528s.713-.15414.74689-.17662a14.51,14.51,0,0,1,1.97547-.26452c-.02335.53043-.0438,1.06691-.05611,1.61309-.024.80457-.02746,1.622-.03356,2.43975C14.28146,15.99293,13.645,15.99926,13.01555,16.01466Zm-.71406,5.35559-.80113-.24076A9.32546,9.32546,0,0,1,8.87006,19.786l-.3413-.27812A4.21874,4.21874,0,0,1,7.315,17.86467c.89142.05926,1.83314.11126,2.81009.15259.93722.04047,1.90625.07289,2.89042.09112.638.0156,1.28323.0219,1.93009.02653.00247.10521.00279.21172.006.31654.01576.80877.05126,1.60457.08987,2.37471q.02566.50238.057.988A14.24012,14.24012,0,0,1,12.30149,21.37025Zm8.18875-.23769a1.11178,1.11178,0,0,0-.413.13092,14.06981,14.06981,0,0,1-3.17574.55068q.0309-.48622.057-.988c.03861-.77014.07411-1.56594.08987-2.37471.00315-.10457.00349-.21086.006-.31584.64682-.00411,1.292-.00987,1.93009-.02569.98417-.01576,1.9532-.05126,2.89042-.08987.97642-.041,1.91767-.09282,2.80865-.152C24.16215,19.23914,22.594,20.42214,20.49024,21.13256Z"></path></svg>